<svg width="64" height="64" viewBox="0 0 64 64" fill="none" xmlns="http://www.w3.org/2000/svg">
<rect width="64" height="64" rx="2" fill="#D9D9D9"/>
<rect x="1" y="9" width="38" height="54" rx="2" fill="white"/>
<rect x="40" y="9" width="23" height="54" rx="2" fill="white"/>
<rect x="11" y="4" width="42" height="4" rx="1" fill="white"/>
<rect x="1" y="4" width="4" height="4" rx="1" fill="#BABABA"/>
<rect x="6" y="4" width="4" height="4" rx="1" fill="#BABABA"/>
<rect x="54" y="4" width="4" height="4" rx="1" fill="#BABABA"/>
<path d="M6.32102 19L5.12784 14.6364H5.66477L6.5767 18.1903H6.61932L7.5483 14.6364H8.14489L9.07386 18.1903H9.11648L10.0284 14.6364H10.5653L9.37216 19H8.8267L7.86364 15.5227H7.82955L6.86648 19H6.32102ZM11.1555 19V15.7273H11.6584V19H11.1555ZM11.4112 15.1818C11.3132 15.1818 11.2287 15.1484 11.1577 15.0817C11.0881 15.0149 11.0533 14.9347 11.0533 14.8409C11.0533 14.7472 11.0881 14.6669 11.1577 14.6001C11.2287 14.5334 11.3132 14.5 11.4112 14.5C11.5092 14.5 11.593 14.5334 11.6626 14.6001C11.7337 14.6669 11.7692 14.7472 11.7692 14.8409C11.7692 14.9347 11.7337 15.0149 11.6626 15.0817C11.593 15.1484 11.5092 15.1818 11.4112 15.1818ZM13.0481 17.8068L13.0396 17.1847H13.1419L14.5737 15.7273H15.1958L13.6703 17.2699H13.6277L13.0481 17.8068ZM12.5794 19V14.6364H13.0822V19H12.5794ZM14.6589 19L13.3805 17.3807L13.7385 17.0312L15.2981 19H14.6589ZM15.843 19V15.7273H16.3459V19H15.843ZM16.0987 15.1818C16.0007 15.1818 15.9162 15.1484 15.8452 15.0817C15.7756 15.0149 15.7408 14.9347 15.7408 14.8409C15.7408 14.7472 15.7756 14.6669 15.8452 14.6001C15.9162 14.5334 16.0007 14.5 16.0987 14.5C16.1967 14.5 16.2805 14.5334 16.3501 14.6001C16.4212 14.6669 16.4567 14.7472 16.4567 14.8409C16.4567 14.9347 16.4212 15.0149 16.3501 15.0817C16.2805 15.1484 16.1967 15.1818 16.0987 15.1818ZM17.2669 20.2273V15.7273H17.7527V16.2472H17.8123C17.8493 16.1903 17.9004 16.1179 17.9657 16.0298C18.0325 15.9403 18.1277 15.8608 18.2512 15.7912C18.3762 15.7202 18.5453 15.6847 18.7583 15.6847C19.0339 15.6847 19.2768 15.7536 19.487 15.8913C19.6973 16.0291 19.8613 16.2244 19.9792 16.4773C20.0971 16.7301 20.1561 17.0284 20.1561 17.3722C20.1561 17.7188 20.0971 18.0192 19.9792 18.2734C19.8613 18.5263 19.698 18.7223 19.4892 18.8615C19.2804 18.9993 19.0396 19.0682 18.7669 19.0682C18.5566 19.0682 18.3883 19.0334 18.2619 18.9638C18.1355 18.8928 18.0382 18.8125 17.97 18.723C17.9018 18.6321 17.8493 18.5568 17.8123 18.4972H17.7697V20.2273H17.2669ZM17.7612 17.3636C17.7612 17.6108 17.7974 17.8288 17.8699 18.0178C17.9423 18.2053 18.0481 18.3523 18.1873 18.4588C18.3265 18.5639 18.497 18.6165 18.6987 18.6165C18.9089 18.6165 19.0843 18.5611 19.225 18.4503C19.367 18.3381 19.4735 18.1875 19.5446 17.9986C19.617 17.8082 19.6532 17.5966 19.6532 17.3636C19.6532 17.1335 19.6177 16.9261 19.5467 16.7415C19.4771 16.5554 19.3713 16.4084 19.2292 16.3004C19.0886 16.1911 18.9118 16.1364 18.6987 16.1364C18.4941 16.1364 18.3223 16.1882 18.1831 16.2919C18.0439 16.3942 17.9387 16.5376 17.8677 16.7223C17.7967 16.9055 17.7612 17.1193 17.7612 17.3636ZM22.2953 19.0682C21.9799 19.0682 21.7079 18.9986 21.4792 18.8594C21.252 18.7188 21.0765 18.5227 20.9529 18.2713C20.8308 18.0185 20.7697 17.7244 20.7697 17.3892C20.7697 17.054 20.8308 16.7585 20.9529 16.5028C21.0765 16.2457 21.2484 16.0455 21.4686 15.902C21.6902 15.7571 21.9487 15.6847 22.2441 15.6847C22.4146 15.6847 22.5829 15.7131 22.7491 15.7699C22.9153 15.8267 23.0666 15.919 23.2029 16.0469C23.3393 16.1733 23.448 16.3409 23.5289 16.5497C23.6099 16.7585 23.6504 17.0156 23.6504 17.321V17.5341H21.1277V17.0994H23.139C23.139 16.9148 23.1021 16.75 23.0282 16.6051C22.9558 16.4602 22.8521 16.3459 22.7172 16.2621C22.5836 16.1783 22.426 16.1364 22.2441 16.1364C22.0439 16.1364 21.8706 16.1861 21.7243 16.2855C21.5794 16.3835 21.4679 16.5114 21.3897 16.669C21.3116 16.8267 21.2725 16.9957 21.2725 17.1761V17.4659C21.2725 17.7131 21.3152 17.9226 21.4004 18.0945C21.487 18.2649 21.6071 18.3949 21.7605 18.4844C21.9139 18.5724 22.0922 18.6165 22.2953 18.6165C22.4274 18.6165 22.5467 18.598 22.6532 18.5611C22.7612 18.5227 22.8542 18.4659 22.9324 18.3906C23.0105 18.3139 23.0708 18.2187 23.1135 18.1051L23.5993 18.2415C23.5481 18.4062 23.4622 18.5511 23.3414 18.6761C23.2207 18.7997 23.0716 18.8963 22.894 18.9659C22.7164 19.0341 22.5169 19.0682 22.2953 19.0682ZM25.6511 19.0682C25.3784 19.0682 25.1376 18.9993 24.9288 18.8615C24.72 18.7223 24.5566 18.5263 24.4387 18.2734C24.3208 18.0192 24.2619 17.7188 24.2619 17.3722C24.2619 17.0284 24.3208 16.7301 24.4387 16.4773C24.5566 16.2244 24.7207 16.0291 24.9309 15.8913C25.1412 15.7536 25.3841 15.6847 25.6596 15.6847C25.8727 15.6847 26.041 15.7202 26.1646 15.7912C26.2896 15.8608 26.3848 15.9403 26.4501 16.0298C26.5169 16.1179 26.5687 16.1903 26.6056 16.2472H26.6483V14.6364H27.1511V19H26.6653V18.4972H26.6056C26.5687 18.5568 26.5162 18.6321 26.448 18.723C26.3798 18.8125 26.2825 18.8928 26.1561 18.9638C26.0297 19.0334 25.8613 19.0682 25.6511 19.0682ZM25.7193 18.6165C25.921 18.6165 26.0914 18.5639 26.2306 18.4588C26.3699 18.3523 26.4757 18.2053 26.5481 18.0178C26.6206 17.8288 26.6568 17.6108 26.6568 17.3636C26.6568 17.1193 26.6213 16.9055 26.5502 16.7223C26.4792 16.5376 26.3741 16.3942 26.2349 16.2919C26.0957 16.1882 25.9238 16.1364 25.7193 16.1364C25.5062 16.1364 25.3287 16.1911 25.1866 16.3004C25.046 16.4084 24.9402 16.5554 24.8691 16.7415C24.7995 16.9261 24.7647 17.1335 24.7647 17.3636C24.7647 17.5966 24.8002 17.8082 24.8713 17.9986C24.9437 18.1875 25.0502 18.3381 25.1909 18.4503C25.3329 18.5611 25.5091 18.6165 25.7193 18.6165ZM28.1419 19V15.7273H28.6447V19H28.1419ZM28.3975 15.1818C28.2995 15.1818 28.215 15.1484 28.144 15.0817C28.0744 15.0149 28.0396 14.9347 28.0396 14.8409C28.0396 14.7472 28.0744 14.6669 28.144 14.6001C28.215 14.5334 28.2995 14.5 28.3975 14.5C28.4956 14.5 28.5794 14.5334 28.649 14.6001C28.72 14.6669 28.7555 14.7472 28.7555 14.8409C28.7555 14.9347 28.72 15.0149 28.649 15.0817C28.5794 15.1484 28.4956 15.1818 28.3975 15.1818ZM30.5288 19.0767C30.3214 19.0767 30.1332 19.0376 29.9641 18.9595C29.7951 18.88 29.6609 18.7656 29.5614 18.6165C29.462 18.4659 29.4123 18.2841 29.4123 18.071C29.4123 17.8835 29.4492 17.7315 29.5231 17.6151C29.5969 17.4972 29.6957 17.4048 29.8192 17.3381C29.9428 17.2713 30.0792 17.2216 30.2283 17.1889C30.3789 17.1548 30.5302 17.1278 30.6822 17.108C30.881 17.0824 31.0423 17.0632 31.1658 17.0504C31.2908 17.0362 31.3817 17.0128 31.4386 16.9801C31.4968 16.9474 31.5259 16.8906 31.5259 16.8097V16.7926C31.5259 16.5824 31.4684 16.419 31.3533 16.3026C31.2397 16.1861 31.0671 16.1278 30.8356 16.1278C30.5955 16.1278 30.4073 16.1804 30.271 16.2855C30.1346 16.3906 30.0387 16.5028 29.9833 16.6222L29.506 16.4517C29.5913 16.2528 29.7049 16.098 29.8469 15.9872C29.9904 15.875 30.1467 15.7969 30.3157 15.7528C30.4862 15.7074 30.6538 15.6847 30.8185 15.6847C30.9237 15.6847 31.0444 15.6974 31.1808 15.723C31.3185 15.7472 31.4513 15.7976 31.5792 15.8743C31.7085 15.951 31.8157 16.0668 31.9009 16.2216C31.9862 16.3764 32.0288 16.5838 32.0288 16.8438V19H31.5259V18.5568H31.5004C31.4663 18.6278 31.4094 18.7038 31.3299 18.7848C31.2504 18.8658 31.1445 18.9347 31.0124 18.9915C30.8803 19.0483 30.7191 19.0767 30.5288 19.0767ZM30.6055 18.625C30.8043 18.625 30.9719 18.5859 31.1083 18.5078C31.2461 18.4297 31.3498 18.3288 31.4194 18.2053C31.4904 18.0817 31.5259 17.9517 31.5259 17.8153V17.3551C31.5046 17.3807 31.4577 17.4041 31.3853 17.4254C31.3143 17.4453 31.2319 17.4631 31.1381 17.4787C31.0458 17.4929 30.9556 17.5057 30.8675 17.517C30.7809 17.527 30.7106 17.5355 30.6566 17.5426C30.5259 17.5597 30.4038 17.5874 30.2901 17.6257C30.1779 17.6626 30.087 17.7187 30.0174 17.794C29.9492 17.8679 29.9151 17.9687 29.9151 18.0966C29.9151 18.2713 29.9798 18.4034 30.109 18.4929C30.2397 18.581 30.4052 18.625 30.6055 18.625Z" fill="#767676"/>
<line x1="6" y1="22.5" x2="33" y2="22.5" stroke="#979797"/>
<line x1="6" y1="24.5" x2="31" y2="24.5" stroke="#979797"/>
<line x1="6" y1="26.5" x2="33" y2="26.5" stroke="#979797"/>
<line x1="6" y1="28.5" x2="31" y2="28.5" stroke="#979797"/>
<line x1="6" y1="30.5" x2="33" y2="30.5" stroke="#979797"/>
<line x1="6" y1="32.5" x2="32" y2="32.5" stroke="#979797"/>
<path d="M6 34.5H13" stroke="#979797"/>
<line x1="6" y1="41.5" x2="31" y2="41.5" stroke="#979797"/>
<line x1="6" y1="43.5" x2="33" y2="43.5" stroke="#979797"/>
<line x1="6" y1="45.5" x2="31" y2="45.5" stroke="#979797"/>
<line x1="6" y1="47.5" x2="33" y2="47.5" stroke="#979797"/>
<line x1="6" y1="49.5" x2="31" y2="49.5" stroke="#979797"/>
<line x1="6" y1="51.5" x2="33" y2="51.5" stroke="#979797"/>
<path d="M6 53.5H24" stroke="#979797"/>
<path d="M44.0263 14.483H44.8104L45.2045 14.9901L45.5923 15.4418L46.3232 16.358H45.4624L44.9595 15.7401L44.7017 15.3736L44.0263 14.483ZM46.3892 13.8182C46.3892 14.294 46.299 14.6989 46.1186 15.0327C45.9396 15.3665 45.6953 15.6214 45.3857 15.7976C45.0774 15.9723 44.7308 16.0597 44.3459 16.0597C43.9581 16.0597 43.6101 15.9716 43.3018 15.7955C42.9936 15.6193 42.75 15.3643 42.571 15.0305C42.392 14.6967 42.3026 14.2926 42.3026 13.8182C42.3026 13.3423 42.392 12.9375 42.571 12.6037C42.75 12.2699 42.9936 12.0156 43.3018 11.8409C43.6101 11.6648 43.9581 11.5767 44.3459 11.5767C44.7308 11.5767 45.0774 11.6648 45.3857 11.8409C45.6953 12.0156 45.9396 12.2699 46.1186 12.6037C46.299 12.9375 46.3892 13.3423 46.3892 13.8182ZM45.4538 13.8182C45.4538 13.5099 45.4077 13.25 45.3153 13.0384C45.2244 12.8267 45.0959 12.6662 44.9297 12.5568C44.7635 12.4474 44.5689 12.3928 44.3459 12.3928C44.1229 12.3928 43.9283 12.4474 43.7621 12.5568C43.5959 12.6662 43.4666 12.8267 43.3743 13.0384C43.2834 13.25 43.2379 13.5099 43.2379 13.8182C43.2379 14.1264 43.2834 14.3864 43.3743 14.598C43.4666 14.8097 43.5959 14.9702 43.7621 15.0795C43.9283 15.1889 44.1229 15.2436 44.3459 15.2436C44.5689 15.2436 44.7635 15.1889 44.9297 15.0795C45.0959 14.9702 45.2244 14.8097 45.3153 14.598C45.4077 14.3864 45.4538 14.1264 45.4538 13.8182ZM46.981 15.233V14.5064L48.8027 11.6364H49.4292V12.642H49.0584L47.91 14.4595V14.4936H50.4988V15.233H46.981ZM49.0755 16V15.0114L49.0925 14.6896V11.6364H49.9576V16H49.0755ZM51.1135 16V15.3352L52.6667 13.897C52.7988 13.7692 52.9096 13.6541 52.9991 13.5518C53.09 13.4496 53.1589 13.3494 53.2058 13.2514C53.2527 13.152 53.2761 13.0447 53.2761 12.9297C53.2761 12.8018 53.247 12.6918 53.1887 12.5994C53.1305 12.5057 53.051 12.4339 52.9501 12.3842C52.8493 12.3331 52.7349 12.3075 52.6071 12.3075C52.4735 12.3075 52.3571 12.3345 52.2576 12.3885C52.1582 12.4425 52.0815 12.5199 52.0275 12.6207C51.9735 12.7216 51.9466 12.8416 51.9466 12.9808H51.0708C51.0708 12.6953 51.1355 12.4474 51.2647 12.2372C51.394 12.027 51.5751 11.8643 51.8081 11.7493C52.041 11.6342 52.3095 11.5767 52.6135 11.5767C52.926 11.5767 53.198 11.6321 53.4295 11.7429C53.6625 11.8523 53.8436 12.0043 53.9728 12.1989C54.1021 12.3935 54.1667 12.6165 54.1667 12.8679C54.1667 13.0327 54.1341 13.1953 54.0687 13.3558C54.0048 13.5163 53.8904 13.6946 53.7257 13.8906C53.5609 14.0852 53.3287 14.3189 53.0289 14.5916L52.3919 15.2159V15.2457H54.2243V16H51.1135Z" fill="#767676"/>
<path d="M42.5 18.5H47" stroke="#979797" stroke-linecap="round"/>
<path d="M52 18.5H56.5" stroke="#979797" stroke-linecap="round"/>
<path d="M42.5 21.5H48" stroke="#979797" stroke-linecap="round"/>
<path d="M52 21.5H57.5" stroke="#979797" stroke-linecap="round"/>
<path d="M52 23.5H56" stroke="#979797" stroke-linecap="round"/>
<path d="M42.5 26.5H48" stroke="#979797" stroke-linecap="round"/>
<path d="M52 26.5H59" stroke="#979797" stroke-linecap="round"/>
<path d="M42.5 29.5H46.5" stroke="#979797" stroke-linecap="round"/>
<path d="M42.5 32.5H46.5" stroke="#979797" stroke-linecap="round"/>
<path d="M52 32.5H56" stroke="#979797" stroke-linecap="round"/>
<path d="M52 29.5H56.5" stroke="#979797" stroke-linecap="round"/>
<path d="M52 48.5H56.5" stroke="#979797" stroke-linecap="round"/>
<path d="M42.5 51.5H48" stroke="#979797" stroke-linecap="round"/>
<path d="M52 51.5H57.5" stroke="#979797" stroke-linecap="round"/>
<path d="M52 53.5H56" stroke="#979797" stroke-linecap="round"/>
<path d="M42.5 56.5H48" stroke="#979797" stroke-linecap="round"/>
<path d="M52 56.5H59" stroke="#979797" stroke-linecap="round"/>
<path d="M42.5 59.5H46.5" stroke="#979797" stroke-linecap="round"/>
<path d="M52 59.5H56.5" stroke="#979797" stroke-linecap="round"/>
<path d="M52 34.5H56.5" stroke="#979797" stroke-linecap="round"/>
<path d="M42.5 37.5H48" stroke="#979797" stroke-linecap="round"/>
<path d="M52 37.5H57.5" stroke="#979797" stroke-linecap="round"/>
<path d="M52 39.5H56" stroke="#979797" stroke-linecap="round"/>
<path d="M42.5 42.5H48" stroke="#979797" stroke-linecap="round"/>
<path d="M52 42.5H59" stroke="#979797" stroke-linecap="round"/>
<path d="M42.5 45.5H46.5" stroke="#979797" stroke-linecap="round"/>
<path d="M42.5 48.5H46.5" stroke="#979797" stroke-linecap="round"/>
<path d="M52 48.5H56" stroke="#979797" stroke-linecap="round"/>
<path d="M52 45.5H56.5" stroke="#979797" stroke-linecap="round"/>
</svg>
