<svg width="64" height="64" viewBox="0 0 64 64" fill="none" xmlns="http://www.w3.org/2000/svg">
<rect width="64" height="64" rx="2" fill="#D9D9D9"/>
<rect x="1" y="9" width="62" height="54" rx="2" fill="white"/>
<rect x="11" y="4" width="42" height="4" rx="1" fill="white"/>
<rect x="1" y="4" width="4" height="4" rx="1" fill="#BABABA"/>
<rect x="6" y="4" width="4" height="4" rx="1" fill="#BABABA"/>
<rect x="59" y="4" width="4" height="4" rx="1" fill="#BABABA"/>
<rect x="54" y="4" width="4" height="4" rx="1" fill="#BABABA"/>
<path d="M8.64205 23L6.25568 14.2727H7.32955L9.15341 21.3807H9.23864L11.0966 14.2727H12.2898L14.1477 21.3807H14.233L16.0568 14.2727H17.1307L14.7443 23H13.6534L11.7273 16.0455H11.6591L9.73295 23H8.64205ZM18.3111 23V16.4545H19.3168V23H18.3111ZM18.8224 15.3636C18.6264 15.3636 18.4574 15.2969 18.3153 15.1634C18.1761 15.0298 18.1065 14.8693 18.1065 14.6818C18.1065 14.4943 18.1761 14.3338 18.3153 14.2003C18.4574 14.0668 18.6264 14 18.8224 14C19.0185 14 19.1861 14.0668 19.3253 14.2003C19.4673 14.3338 19.5384 14.4943 19.5384 14.6818C19.5384 14.8693 19.4673 15.0298 19.3253 15.1634C19.1861 15.2969 19.0185 15.3636 18.8224 15.3636ZM22.0962 20.6136L22.0792 19.3693H22.2837L25.1474 16.4545H26.3917L23.3406 19.5398H23.2553L22.0962 20.6136ZM21.1587 23V14.2727H22.1644V23H21.1587ZM25.3178 23L22.761 19.7614L23.4769 19.0625L26.5962 23H25.3178ZM27.6861 23V16.4545H28.6918V23H27.6861ZM28.1974 15.3636C28.0014 15.3636 27.8324 15.2969 27.6903 15.1634C27.5511 15.0298 27.4815 14.8693 27.4815 14.6818C27.4815 14.4943 27.5511 14.3338 27.6903 14.2003C27.8324 14.0668 28.0014 14 28.1974 14C28.3935 14 28.5611 14.0668 28.7003 14.2003C28.8423 14.3338 28.9134 14.4943 28.9134 14.6818C28.9134 14.8693 28.8423 15.0298 28.7003 15.1634C28.5611 15.2969 28.3935 15.3636 28.1974 15.3636ZM30.5337 25.4545V16.4545H31.5053V17.4943H31.6246C31.6985 17.3807 31.8008 17.2358 31.9315 17.0597C32.065 16.8807 32.2553 16.7216 32.5025 16.5824C32.7525 16.4403 33.0906 16.3693 33.5167 16.3693C34.0678 16.3693 34.5536 16.5071 34.9741 16.7827C35.3945 17.0582 35.7227 17.4489 35.9585 17.9545C36.1942 18.4602 36.3121 19.0568 36.3121 19.7443C36.3121 20.4375 36.1942 21.0384 35.9585 21.5469C35.7227 22.0526 35.396 22.4446 34.9783 22.723C34.5607 22.9986 34.0792 23.1364 33.5337 23.1364C33.1133 23.1364 32.7766 23.0668 32.5238 22.9276C32.271 22.7855 32.0763 22.625 31.94 22.446C31.8036 22.2642 31.6985 22.1136 31.6246 21.9943H31.5394V25.4545H30.5337ZM31.5224 19.7273C31.5224 20.2216 31.5948 20.6577 31.7397 21.0355C31.8846 21.4105 32.0962 21.7045 32.3746 21.9176C32.6531 22.1278 32.994 22.233 33.3974 22.233C33.8178 22.233 34.1687 22.1222 34.4499 21.9006C34.734 21.6761 34.9471 21.375 35.0891 20.9972C35.234 20.6165 35.3065 20.1932 35.3065 19.7273C35.3065 19.267 35.2354 18.8523 35.0934 18.483C34.9542 18.1108 34.7425 17.8168 34.4585 17.6009C34.1772 17.3821 33.8235 17.2727 33.3974 17.2727C32.9883 17.2727 32.6445 17.3764 32.3661 17.5838C32.0877 17.7884 31.8775 18.0753 31.7354 18.4446C31.5934 18.8111 31.5224 19.2386 31.5224 19.7273ZM40.5906 23.1364C39.9599 23.1364 39.4158 22.9972 38.9585 22.7188C38.5039 22.4375 38.1531 22.0455 37.9059 21.5426C37.6616 21.0369 37.5394 20.4489 37.5394 19.7784C37.5394 19.108 37.6616 18.517 37.9059 18.0057C38.1531 17.4915 38.4968 17.0909 38.9371 16.804C39.3803 16.5142 39.8974 16.3693 40.4883 16.3693C40.8292 16.3693 41.1658 16.4261 41.4982 16.5398C41.8306 16.6534 42.1332 16.8381 42.4059 17.0938C42.6786 17.3466 42.896 17.6818 43.0579 18.0994C43.2198 18.517 43.3008 19.0312 43.3008 19.642V20.0682H38.2553V19.1989H42.2781C42.2781 18.8295 42.2042 18.5 42.0565 18.2102C41.9116 17.9205 41.7042 17.6918 41.4343 17.5241C41.1673 17.3565 40.8519 17.2727 40.4883 17.2727C40.0877 17.2727 39.7411 17.3722 39.4485 17.571C39.1587 17.767 38.9357 18.0227 38.7795 18.3381C38.6232 18.6534 38.5451 18.9915 38.5451 19.3523V19.9318C38.5451 20.4261 38.6303 20.8452 38.8008 21.1889C38.9741 21.5298 39.2141 21.7898 39.521 21.9688C39.8278 22.1449 40.1843 22.233 40.5906 22.233C40.8548 22.233 41.0934 22.196 41.3065 22.1222C41.5224 22.0455 41.7085 21.9318 41.8647 21.7812C42.021 21.6278 42.1417 21.4375 42.2269 21.2102L43.1985 21.483C43.0962 21.8125 42.9244 22.1023 42.6829 22.3523C42.4414 22.5994 42.1431 22.7926 41.788 22.9318C41.4329 23.0682 41.0337 23.1364 40.5906 23.1364ZM47.3022 23.1364C46.7567 23.1364 46.2752 22.9986 45.8576 22.723C45.44 22.4446 45.1133 22.0526 44.8775 21.5469C44.6417 21.0384 44.5238 20.4375 44.5238 19.7443C44.5238 19.0568 44.6417 18.4602 44.8775 17.9545C45.1133 17.4489 45.4414 17.0582 45.8619 16.7827C46.2823 16.5071 46.7681 16.3693 47.3192 16.3693C47.7454 16.3693 48.082 16.4403 48.3292 16.5824C48.5792 16.7216 48.7695 16.8807 48.9002 17.0597C49.0337 17.2358 49.1374 17.3807 49.2113 17.4943H49.2965V14.2727H50.3022V23H49.3306V21.9943H49.2113C49.1374 22.1136 49.0323 22.2642 48.896 22.446C48.7596 22.625 48.565 22.7855 48.3121 22.9276C48.0593 23.0668 47.7227 23.1364 47.3022 23.1364ZM47.4386 22.233C47.842 22.233 48.1829 22.1278 48.4613 21.9176C48.7397 21.7045 48.9513 21.4105 49.0962 21.0355C49.2411 20.6577 49.3136 20.2216 49.3136 19.7273C49.3136 19.2386 49.2425 18.8111 49.1005 18.4446C48.9585 18.0753 48.7482 17.7884 48.4698 17.5838C48.1914 17.3764 47.8477 17.2727 47.4386 17.2727C47.0124 17.2727 46.6573 17.3821 46.3732 17.6009C46.092 17.8168 45.8803 18.1108 45.7383 18.483C45.5991 18.8523 45.5295 19.267 45.5295 19.7273C45.5295 20.1932 45.6005 20.6165 45.7425 20.9972C45.8874 21.375 46.1005 21.6761 46.3817 21.9006C46.6658 22.1222 47.0181 22.233 47.4386 22.233ZM52.2837 23V16.4545H53.2894V23H52.2837ZM52.7951 15.3636C52.5991 15.3636 52.43 15.2969 52.288 15.1634C52.1488 15.0298 52.0792 14.8693 52.0792 14.6818C52.0792 14.4943 52.1488 14.3338 52.288 14.2003C52.43 14.0668 52.5991 14 52.7951 14C52.9911 14 53.1587 14.0668 53.2979 14.2003C53.44 14.3338 53.511 14.4943 53.511 14.6818C53.511 14.8693 53.44 15.0298 53.2979 15.1634C53.1587 15.2969 52.9911 15.3636 52.7951 15.3636ZM57.0575 23.1534C56.6428 23.1534 56.2663 23.0753 55.9283 22.919C55.5902 22.7599 55.3217 22.5312 55.1229 22.233C54.924 21.9318 54.8246 21.5682 54.8246 21.142C54.8246 20.767 54.8984 20.4631 55.0462 20.2301C55.1939 19.9943 55.3913 19.8097 55.6385 19.6761C55.8857 19.5426 56.1584 19.4432 56.4567 19.3778C56.7578 19.3097 57.0604 19.2557 57.3643 19.2159C57.7621 19.1648 58.0845 19.1264 58.3317 19.1009C58.5817 19.0724 58.7635 19.0256 58.8771 18.9602C58.9936 18.8949 59.0518 18.7812 59.0518 18.6193V18.5852C59.0518 18.1648 58.9368 17.8381 58.7067 17.6051C58.4794 17.3722 58.1342 17.2557 57.6712 17.2557C57.1911 17.2557 56.8146 17.3608 56.5419 17.571C56.2692 17.7812 56.0774 18.0057 55.9666 18.2443L55.0121 17.9034C55.1825 17.5057 55.4098 17.196 55.6939 16.9744C55.9808 16.75 56.2933 16.5937 56.6314 16.5057C56.9723 16.4148 57.3075 16.3693 57.6371 16.3693C57.8473 16.3693 58.0888 16.3949 58.3615 16.446C58.6371 16.4943 58.9027 16.5952 59.1584 16.7486C59.4169 16.902 59.6314 17.1335 59.8018 17.4432C59.9723 17.7528 60.0575 18.1676 60.0575 18.6875V23H59.0518V22.1136H59.0007C58.9325 22.2557 58.8189 22.4077 58.6598 22.5696C58.5007 22.7315 58.2891 22.8693 58.0249 22.983C57.7607 23.0966 57.4382 23.1534 57.0575 23.1534ZM57.2109 22.25C57.6087 22.25 57.9439 22.1719 58.2166 22.0156C58.4922 21.8594 58.6996 21.6577 58.8388 21.4105C58.9808 21.1634 59.0518 20.9034 59.0518 20.6307V19.7102C59.0092 19.7614 58.9155 19.8082 58.7706 19.8509C58.6286 19.8906 58.4638 19.9261 58.2763 19.9574C58.0916 19.9858 57.9112 20.0114 57.7351 20.0341C57.5618 20.054 57.4212 20.071 57.3132 20.0852C57.0518 20.1193 56.8075 20.1747 56.5803 20.2514C56.3558 20.3253 56.174 20.4375 56.0348 20.5881C55.8984 20.7358 55.8303 20.9375 55.8303 21.1932C55.8303 21.5426 55.9595 21.8068 56.218 21.9858C56.4794 22.1619 56.8104 22.25 57.2109 22.25Z" fill="#767676"/>
<rect x="39" y="9" width="24" height="54" fill="white"/>
<path d="M39.5 11.5V61" stroke="#D9D9D9" stroke-linecap="round"/>
<line x1="6" y1="27.5" x2="39" y2="27.5" stroke="#979797"/>
<line x1="6" y1="29.5" x2="39" y2="29.5" stroke="#979797"/>
<line x1="6" y1="31.5" x2="39" y2="31.5" stroke="#979797"/>
<line x1="6" y1="33.5" x2="39" y2="33.5" stroke="#979797"/>
<line x1="6" y1="35.5" x2="39" y2="35.5" stroke="#979797"/>
<line x1="6" y1="37.5" x2="39" y2="37.5" stroke="#979797"/>
<path d="M6 39.5H26" stroke="#979797"/>
<line x1="6" y1="46.5" x2="39" y2="46.5" stroke="#979797"/>
<line x1="6" y1="48.5" x2="39" y2="48.5" stroke="#979797"/>
<line x1="6" y1="50.5" x2="39" y2="50.5" stroke="#979797"/>
<line x1="6" y1="52.5" x2="39" y2="52.5" stroke="#979797"/>
<line x1="6" y1="54.5" x2="39" y2="54.5" stroke="#979797"/>
<line x1="6" y1="56.5" x2="39" y2="56.5" stroke="#979797"/>
<path d="M6 58.5H17" stroke="#979797"/>
<path d="M44.0263 15.483H44.8104L45.2045 15.9901L45.5923 16.4418L46.3232 17.358H45.4624L44.9595 16.7401L44.7017 16.3736L44.0263 15.483ZM46.3892 14.8182C46.3892 15.294 46.299 15.6989 46.1186 16.0327C45.9396 16.3665 45.6953 16.6214 45.3857 16.7976C45.0774 16.9723 44.7308 17.0597 44.3459 17.0597C43.9581 17.0597 43.6101 16.9716 43.3018 16.7955C42.9936 16.6193 42.75 16.3643 42.571 16.0305C42.392 15.6967 42.3026 15.2926 42.3026 14.8182C42.3026 14.3423 42.392 13.9375 42.571 13.6037C42.75 13.2699 42.9936 13.0156 43.3018 12.8409C43.6101 12.6648 43.9581 12.5767 44.3459 12.5767C44.7308 12.5767 45.0774 12.6648 45.3857 12.8409C45.6953 13.0156 45.9396 13.2699 46.1186 13.6037C46.299 13.9375 46.3892 14.3423 46.3892 14.8182ZM45.4538 14.8182C45.4538 14.5099 45.4077 14.25 45.3153 14.0384C45.2244 13.8267 45.0959 13.6662 44.9297 13.5568C44.7635 13.4474 44.5689 13.3928 44.3459 13.3928C44.1229 13.3928 43.9283 13.4474 43.7621 13.5568C43.5959 13.6662 43.4666 13.8267 43.3743 14.0384C43.2834 14.25 43.2379 14.5099 43.2379 14.8182C43.2379 15.1264 43.2834 15.3864 43.3743 15.598C43.4666 15.8097 43.5959 15.9702 43.7621 16.0795C43.9283 16.1889 44.1229 16.2436 44.3459 16.2436C44.5689 16.2436 44.7635 16.1889 44.9297 16.0795C45.0959 15.9702 45.2244 15.8097 45.3153 15.598C45.4077 15.3864 45.4538 15.1264 45.4538 14.8182ZM46.981 16.233V15.5064L48.8027 12.6364H49.4292V13.642H49.0584L47.91 15.4595V15.4936H50.4988V16.233H46.981ZM49.0755 17V16.0114L49.0925 15.6896V12.6364H49.9576V17H49.0755ZM51.1135 17V16.3352L52.6667 14.897C52.7988 14.7692 52.9096 14.6541 52.9991 14.5518C53.09 14.4496 53.1589 14.3494 53.2058 14.2514C53.2527 14.152 53.2761 14.0447 53.2761 13.9297C53.2761 13.8018 53.247 13.6918 53.1887 13.5994C53.1305 13.5057 53.051 13.4339 52.9501 13.3842C52.8493 13.3331 52.7349 13.3075 52.6071 13.3075C52.4735 13.3075 52.3571 13.3345 52.2576 13.3885C52.1582 13.4425 52.0815 13.5199 52.0275 13.6207C51.9735 13.7216 51.9466 13.8416 51.9466 13.9808H51.0708C51.0708 13.6953 51.1355 13.4474 51.2647 13.2372C51.394 13.027 51.5751 12.8643 51.8081 12.7493C52.041 12.6342 52.3095 12.5767 52.6135 12.5767C52.926 12.5767 53.198 12.6321 53.4295 12.7429C53.6625 12.8523 53.8436 13.0043 53.9728 13.1989C54.1021 13.3935 54.1667 13.6165 54.1667 13.8679C54.1667 14.0327 54.1341 14.1953 54.0687 14.3558C54.0048 14.5163 53.8904 14.6946 53.7257 14.8906C53.5609 15.0852 53.3287 15.3189 53.0289 15.5916L52.3919 16.2159V16.2457H54.2243V17H51.1135Z" fill="#767676"/>
<path d="M42.5 19.5H47" stroke="#979797" stroke-linecap="round"/>
<path d="M52 19.5H56.5" stroke="#979797" stroke-linecap="round"/>
<path d="M42.5 22.5H48" stroke="#979797" stroke-linecap="round"/>
<path d="M52 22.5H57.5" stroke="#979797" stroke-linecap="round"/>
<path d="M52 24.5H56" stroke="#979797" stroke-linecap="round"/>
<path d="M42.5 27.5H48" stroke="#979797" stroke-linecap="round"/>
<path d="M52 27.5H59" stroke="#979797" stroke-linecap="round"/>
<path d="M42.5 30.5H46.5" stroke="#979797" stroke-linecap="round"/>
<path d="M42.5 33.5H46.5" stroke="#979797" stroke-linecap="round"/>
<path d="M52 33.5H56" stroke="#979797" stroke-linecap="round"/>
<path d="M52 30.5H56.5" stroke="#979797" stroke-linecap="round"/>
<path d="M52 49.5H56.5" stroke="#979797" stroke-linecap="round"/>
<path d="M42.5 52.5H48" stroke="#979797" stroke-linecap="round"/>
<path d="M52 52.5H57.5" stroke="#979797" stroke-linecap="round"/>
<path d="M52 54.5H56" stroke="#979797" stroke-linecap="round"/>
<path d="M42.5 57.5H48" stroke="#979797" stroke-linecap="round"/>
<path d="M52 57.5H59" stroke="#979797" stroke-linecap="round"/>
<path d="M42.5 60.5H46.5" stroke="#979797" stroke-linecap="round"/>
<path d="M52 60.5H56.5" stroke="#979797" stroke-linecap="round"/>
<path d="M52 35.5H56.5" stroke="#979797" stroke-linecap="round"/>
<path d="M42.5 38.5H48" stroke="#979797" stroke-linecap="round"/>
<path d="M52 38.5H57.5" stroke="#979797" stroke-linecap="round"/>
<path d="M52 40.5H56" stroke="#979797" stroke-linecap="round"/>
<path d="M42.5 43.5H48" stroke="#979797" stroke-linecap="round"/>
<path d="M52 43.5H59" stroke="#979797" stroke-linecap="round"/>
<path d="M42.5 46.5H46.5" stroke="#979797" stroke-linecap="round"/>
<path d="M42.5 49.5H46.5" stroke="#979797" stroke-linecap="round"/>
<path d="M52 49.5H56" stroke="#979797" stroke-linecap="round"/>
<path d="M52 46.5H56.5" stroke="#979797" stroke-linecap="round"/>
</svg>
